<svg xmlns="http://www.w3.org/2000/svg" viewBox="0 0 122.88 111.81"><path d="M49.82 88.5l6.43 18.9 3.23-11.22-1.58-1.74c-.71-1.04-.87-1.95-.48-2.74.86-1.7 2.63-1.38 4.29-1.38 1.74 0 3.89-.33 4.43 1.85.19.73-.04 1.49-.55 2.27L64 96.18l3.23 11.22 5.82-18.9c4.2 3.78 16.62 4.53 21.25 7.11 1.46.82 2.78 1.85 3.85 3.25 2.88 3.81 3.09 4.06 3.83 8.79-.24 2.49-1.65 3.93-4.44 4.15h-72.2c-2.79-.21-4.2-1.65-4.44-4.15.74-4.73.96-4.98 3.83-8.79 1.06-1.41 2.38-2.44 3.85-3.25 4.62-2.58 17.05-3.34 21.24-7.11zm-21.84-1.25c-.08-.16-.17-.3-.27-.44-.45-.74-.9-1.47-1.36-2.31-.45-.91-.9-1.76-1.31-2.55-.4-.85-.79-1.76-1.13-2.66-.28-.79-.62-1.69-.96-2.77-.5-1.53-1.93-2.48-3.45-2.48H9.72c-.34 0-.67-.05-.91-.17-.22-.12-.5-.28-.67-.5-.22-.23-.4-.45-.5-.67-.12-.22-.17-.57-.17-.9V59.45c0-.34.05-.62.12-.85.12-.23.28-.5.57-.79.22-.22.45-.4.67-.45.23-.12.57-.17.9-.17h8.99c1.81 0 3.28-1.31 3.62-3 .22-.96.45-1.86.67-2.66.28-.91.57-1.76.91-2.66.34-.85.67-1.76 1.13-2.6.4-.91.85-1.69 1.24-2.48.79-1.47.5-3.17-.62-4.29l-7.01-7.07c-.05-.05-.05-.05-.12-.05-.22-.22-.4-.45-.5-.67-.12-.22-.12-.45-.12-.79s.05-.62.17-.85c.12-.28.28-.5.57-.79l8.65-8.6c.28-.28.5-.45.79-.57.23-.12.5-.17.85-.17.34 0 .62.05.85.17.23.12.5.28.74.5h.05L36.98 27c1.24 1.24 3.22 1.41 4.64.4.74-.45 1.47-.9 2.31-1.36.9-.45 1.76-.9 2.55-1.31.85-.4 1.76-.79 2.66-1.13.79-.28 1.69-.62 2.77-.96 1.53-.5 2.48-1.93 2.48-3.45v-9.8c0-.34.05-.67.17-.91.12-.22.28-.45.45-.67.23-.22.45-.4.67-.45.22-.12.57-.17.91-.17h9.68c.34 0 .67.05.91.17.22.05.45.23.67.45.17.22.34.45.45.67.12.22.17.57.17.91v9.79c0 1.53.96 2.94 2.48 3.45 1.07.34 1.98.67 2.77.96.91.34 1.81.74 2.66 1.13.79.4 1.64.85 2.55 1.31.85.45 1.58.9 2.31 1.36 1.41 1.02 3.39.85 4.64-.4l6.39-6.39h.05c.22-.22.5-.4.74-.5.22-.12.5-.17.85-.17.34 0 .62.05.85.17.29.12.5.28.79.57l8.65 8.6c.28.28.45.5.57.79.12.22.17.5.17.85 0 .34 0 .57-.12.79-.12.23-.28.45-.5.67-.05 0-.05 0-.12.05l-7.01 7.07a3.58 3.58 0 00-.62 4.29c.4.79.85 1.58 1.24 2.48.45.85.79 1.76 1.13 2.6.34.9.62 1.76.91 2.66.22.79.45 1.69.67 2.66.34 1.69 1.81 3 3.62 3h8.98c.34 0 .67.05.91.17.22.05.45.22.67.45.29.29.45.57.57.79.05.22.12.5.12.85v12.33c0 .34-.05.67-.17.91-.12.23-.29.45-.5.67-.17.22-.45.4-.67.5-.23.12-.57.17-.9.17h-9.79c-1.53 0-2.94.96-3.45 2.48-.34 1.07-.67 1.98-.96 2.77-.34.91-.74 1.81-1.13 2.66-.85 1.67-1.67 3.27-2.66 4.86-.1.14-.19.28-.27.44h8.56c.36-.72.72-1.5 1.1-2.3.45-1.02.9-2.03 1.31-3.05.05-.17.17-.4.23-.57h7.24c1.3 0 2.55-.22 3.67-.67 1.13-.45 2.21-1.19 3.12-2.09s1.64-1.93 2.09-3.12c.45-1.19.67-2.38.67-3.67V59.44c0-1.24-.28-2.48-.74-3.62a9.005 9.005 0 00-2.03-3.05l-.05-.05c-.91-.91-1.93-1.64-3.05-2.1-1.13-.5-2.38-.74-3.67-.74h-6.17c0-.17-.05-.28-.12-.45-.34-1.07-.67-2.15-1.07-3.17-.45-1.07-.85-2.1-1.3-3.05-.05-.12-.17-.28-.22-.45l5.1-5.15c.96-.85 1.64-1.86 2.14-3 .45-1.13.74-2.38.74-3.67 0-1.31-.22-2.48-.74-3.67a9.992 9.992 0 00-2.09-3.05h-.05l-8.65-8.6c-.9-.9-1.93-1.58-3.12-2.09-1.19-.5-2.38-.74-3.67-.74-1.24 0-2.48.22-3.67.74-1.19.45-2.21 1.19-3.12 2.09l-4.41 4.36-.34-.17c-.91-.5-1.93-.96-3-1.47-1.02-.45-2.03-.9-3.05-1.31-.17-.05-.4-.17-.57-.23V9.55c0-1.31-.22-2.55-.67-3.67-.45-1.14-1.19-2.21-2.09-3.12-.96-.91-1.98-1.64-3.12-2.09C68.9.22 67.71 0 66.4 0h-9.92c-1.31 0-2.48.22-3.67.67-1.12.45-2.15 1.19-3.12 2.09-.91.91-1.64 1.98-2.09 3.12-.45 1.12-.67 2.38-.67 3.67v7.24c-.17.05-.4.17-.57.23-1.02.4-2.03.85-3.05 1.31-1.07.5-2.09.96-3 1.47l-.34.17-4.41-4.36c-.9-.9-1.93-1.64-3.12-2.09-1.19-.5-2.43-.74-3.67-.74-1.31 0-2.48.22-3.67.74-1.19.5-2.21 1.19-3.12 2.09l-8.65 8.6h-.05c-.9.9-1.58 1.93-2.09 3.05-.5 1.18-.74 2.37-.74 3.66 0 1.31.28 2.55.74 3.67.5 1.13 1.19 2.15 2.15 3l5.09 5.15c-.05.17-.17.34-.22.45-.45.96-.85 1.98-1.31 3.05-.4 1.02-.74 2.09-1.07 3.17-.05.17-.12.28-.12.45H9.56c-1.31 0-2.55.23-3.67.74-1.13.45-2.15 1.19-3.05 2.09l-.05.05c-.91.9-1.58 1.93-2.03 3.05C.28 56.94 0 58.2 0 59.44v12.32c0 1.31.22 2.48.67 3.67.45 1.19 1.19 2.21 2.09 3.12s1.98 1.64 3.12 2.09c1.13.45 2.38.67 3.67.67h7.24c.05.17.17.4.23.57.4 1.02.85 2.03 1.31 3.05.39.81.74 1.59 1.1 2.3h8.55v.02zm18.93-25.79c-.8.03-1.4.2-1.81.47-.24.16-.41.36-.52.6-.13.26-.18.59-.17.96.03 1.1.61 2.52 1.71 4.16l.01.03 3.59 5.71c1.44 2.29 2.95 4.63 4.82 6.34 1.8 1.65 3.99 2.76 6.89 2.77 3.13.01 5.43-1.15 7.28-2.9 1.93-1.81 3.46-4.29 4.97-6.78l4.04-6.66c.75-1.72 1.03-2.87.86-3.55-.11-.4-.55-.6-1.3-.63-.16-.01-.32-.01-.49-.01l-.57.03c-.11.01-.21 0-.31-.02-.36.02-.73-.01-1.11-.06l1.38-6.13c-7.39-.09-12.46-1.38-18.44-5.21-1.97-1.25-2.56-2.69-4.53-2.55-1.48.28-2.73.95-3.73 2.02-.95 1.02-1.67 2.42-2.14 4.21l.79 7.22c-.42.05-.83.03-1.22-.02zm31.77-1.29c1 .3 1.64.94 1.89 1.96.29 1.14-.03 2.73-.98 4.9l-.06.12-4.09 6.74c-1.58 2.6-3.18 5.2-5.32 7.2-2.21 2.07-4.94 3.45-8.67 3.44-3.48-.01-6.1-1.34-8.25-3.31-2.08-1.9-3.67-4.35-5.18-6.76l-3.59-5.71c-1.31-1.96-1.99-3.75-2.04-5.22-.02-.69.1-1.32.35-1.87.27-.58.68-1.06 1.23-1.43.26-.17.55-.32.87-.44-.23-3.09-.32-7-.17-10.27.08-.77.22-1.55.44-2.33.92-3.28 3.22-5.92 6.07-7.73 1-.64 2.1-1.17 3.27-1.59 6.89-2.51 16.04-1.14 20.94 4.15 1.99 2.16 3.25 5.02 3.52 8.8l-.23 9.35z" fill-rule="evenodd" clip-rule="evenodd"/></svg>