<svg xmlns="http://www.w3.org/2000/svg" viewBox="0 0 101.5 122.88"><path d="M56.83 21.74c11.58 1.38 21.96 6.67 29.8 14.5 9.18 9.18 14.86 21.87 14.86 35.88 0 14.01-5.68 26.7-14.86 35.89s-21.87 14.87-35.89 14.87c-14.01 0-26.7-5.68-35.88-14.87C5.68 98.83 0 86.14 0 72.13c0-14.01 5.68-26.7 14.86-35.88 8.41-8.41 19.77-13.89 32.38-14.75v-8.51c0-.13.01-.26.02-.38h-9.51a2.84 2.84 0 01-2.83-2.83V2.83C34.92 1.28 36.2 0 37.76 0h28.57c1.56 0 2.84 1.28 2.84 2.83v6.94c0 1.56-1.28 2.83-2.84 2.83h-9.51c.01.13.02.25.02.38v8.76h-.01zm-2.01 42.81a8.59 8.59 0 014.53 7.58 8.61 8.61 0 01-17.22 0 8.61 8.61 0 014.53-7.58V44.83a4.076 4.076 0 118.15 0l.01 19.72zm41.51-27.48c1.97-4.7 1.74-9.63-1.08-12.92-3.38-3.96-9.5-4.41-15.17-1.63 6 4.13 11.46 8.93 16.25 14.55zm-91.16 0c-1.97-4.7-1.74-9.63 1.08-12.92 3.38-3.96 9.5-4.41 15.18-1.63-6.02 4.13-11.48 8.93-16.26 14.55zm75.7 4.94c-7.71-7.71-18.36-12.48-30.12-12.48-11.76 0-22.41 4.77-30.12 12.48-7.71 7.71-12.48 18.36-12.48 30.12 0 11.76 4.77 22.42 12.48 30.12s18.36 12.48 30.12 12.48c11.77 0 22.42-4.77 30.12-12.48s12.48-18.36 12.48-30.13c0-11.75-4.77-22.4-12.48-30.11z"/></svg>